<svg width="34" height="32" viewBox="0 0 34 32" fill="none" xmlns="http://www.w3.org/2000/svg">
<g clip-path="url(#clip0_2_31)">
<path d="M13.8714 16.7593C13.8714 18.0145 12.848 19.032 11.5856 19.032C10.3233 19.032 9.29992 18.0145 9.29992 16.7593C9.29992 15.5041 10.3233 14.4866 11.5856 14.4866C12.848 14.4866 13.8714 15.5041 13.8714 16.7593ZM21.4994 16.7593C21.4994 18.0145 20.476 19.032 19.2136 19.032C17.9513 19.032 16.9279 18.0145 16.9279 16.7593C16.9279 15.5041 17.9513 14.4866 19.2136 14.4866C20.476 14.4866 21.4994 15.5041 21.4994 16.7593ZM29.1274 16.7593C29.1274 18.0145 28.104 19.032 26.8416 19.032C25.5793 19.032 24.5559 18.0145 24.5559 16.7593C24.5559 15.5041 25.5793 14.4866 26.8416 14.4866C28.104 14.4866 29.1274 15.5041 29.1274 16.7593ZM29.2579 11.8116C28.4149 5.26337 22.8848 0.730606 15.1437 0.849633C6.52579 0.982141 0.159119 7.1791 0.159119 15.9731C0.159119 24.8232 6.58109 31.1527 16.214 31.1527C21.1714 31.1527 29.1638 28.891 29.1638 28.891L29.1797 29.7761L33.8409 24.9313L29.16 23.1945L29.1644 24.1787C29.1644 24.1787 19.8756 26.4672 16.383 26.4476C9.15846 26.4069 5.4294 22.0247 5.24448 16.0017C5.34007 7.68975 10.8788 5.34892 15.1436 5.3867C18.8264 5.18832 23.6365 6.43416 24.559 11.8161L29.2579 11.8116Z" fill="white"/>
</g>
<defs>
<clipPath id="clip0_2_31">
<rect width="34" height="32" fill="white"/>
</clipPath>
</defs>
</svg>
