<svg width="80" height="76" viewBox="0 0 80 76" fill="none" xmlns="http://www.w3.org/2000/svg">
<g clip-path="url(#clip0_1_19)">
<path d="M75.7447 61.9999C75.0915 61.2694 74.1217 60.9141 72.7758 60.9141C69.9456 60.9141 67.5507 63.0462 67.5507 66.5209C67.5507 69.9955 69.9456 72.1079 72.7758 72.1079C73.9634 72.1079 74.8738 71.8118 75.527 71.18V75.7405H80V61.1115H75.7447V61.9999ZM73.8446 68.6333C72.855 68.6333 72.0831 67.9226 72.0831 66.5209C72.0831 65.1192 72.855 64.3887 73.8446 64.3887C74.8342 64.3887 75.6061 65.1192 75.6061 66.5209C75.6061 67.9226 74.8342 68.6333 73.8446 68.6333ZM66.1455 71.9105V61.1115H61.6724V71.9105H66.1455ZM59.4755 68.4359C59.1786 68.6333 58.8224 68.732 58.4661 68.732C57.9317 68.732 57.5359 68.3569 57.5359 67.6856V64.9612H59.7526V61.7038H57.5359V58.6832H53.0628V61.7038H51.5784V64.9612H53.0628V67.7251C53.0628 70.7062 54.8046 72.1079 57.7932 72.1079C58.8422 72.1079 59.8516 71.9302 60.5443 71.5354L59.4755 68.4359ZM46.195 60.9141C44.9283 60.9141 43.7803 61.3287 42.9292 62.1776V61.1115H38.6739V71.9105H43.147V66.8367C43.147 65.2376 43.9189 64.6651 44.8293 64.6651C45.6408 64.6651 46.1554 65.1784 46.1554 66.5209V71.9105H50.6284V65.7509C50.6284 62.3553 48.6888 60.9141 46.195 60.9141ZM37.2687 66.5011C37.2687 62.8488 34.5176 60.9141 31.3112 60.9141C27.808 60.9141 25.1757 63.2239 25.1757 66.5011C25.1757 69.7191 27.7486 72.1079 31.7269 72.1079C33.8842 72.1079 35.4082 71.5156 36.4572 70.3706L34.1217 68.0213C33.4092 68.5543 32.855 68.811 31.8654 68.811C30.7571 68.811 30.005 68.3766 29.6883 67.5475H37.2093C37.2291 67.2316 37.2687 66.817 37.2687 66.5011ZM31.3508 63.9544C32.2613 63.9544 32.9144 64.4874 33.0925 65.3956H29.6091C29.7872 64.4874 30.4206 63.9544 31.3508 63.9544ZM18.7828 66.896L16.6056 61.1115H12.0139L16.3681 71.9105H20.9995L25.3538 61.1115H21.1183L18.7828 66.896ZM12.093 66.5011C12.093 62.8488 9.34192 60.9141 6.13559 60.9141C2.63237 60.9141 0 63.2239 0 66.5011C0 69.7191 2.57299 72.1079 6.55122 72.1079C8.70857 72.1079 10.2326 71.5156 11.2816 70.3706L8.94607 68.0213C8.23355 68.5543 7.67937 68.811 6.68976 68.811C5.5814 68.811 4.8293 68.3766 4.51262 67.5475H12.0337C12.0534 67.2316 12.093 66.817 12.093 66.5011ZM6.17516 63.9544C7.0856 63.9544 7.73874 64.4874 7.91688 65.3956H4.43346C4.61159 64.4874 5.24493 63.9544 6.17516 63.9544ZM34.8759 28.1939C34.8759 30.3974 33.0851 32.1838 30.8759 32.1838C28.6668 32.1838 26.8759 30.3974 26.8759 28.1939C26.8759 25.9903 28.6668 24.204 30.8759 24.204C33.0851 24.204 34.8759 25.9903 34.8759 28.1939ZM48.2249 28.1939C48.2249 30.3974 46.4341 32.1838 44.2249 32.1838C42.0158 32.1838 40.2249 30.3974 40.2249 28.1939C40.2249 25.9903 42.0158 24.204 44.2249 24.204C46.4341 24.204 48.2249 25.9903 48.2249 28.1939ZM61.5739 28.1939C61.5739 30.3974 59.7831 32.1838 57.5739 32.1838C55.3648 32.1838 53.5739 30.3974 53.5739 28.1939C53.5739 25.9903 55.3648 24.204 57.5739 24.204C59.7831 24.204 61.5739 25.9903 61.5739 28.1939ZM61.8024 19.5079C60.3271 8.0121 50.6495 0.0545819 37.1026 0.263541C22.0212 0.496167 10.8795 11.3753 10.8795 26.8137C10.8795 42.3505 22.118 53.4622 38.9757 53.4622C47.6509 53.4622 61.6377 49.4918 61.6377 49.4918L61.6655 51.0455L69.8226 42.5403L61.6311 39.4911L61.6387 41.219C61.6387 41.219 45.3833 45.2367 39.2713 45.2022C26.6284 45.1307 20.1025 37.4375 19.7789 26.8638C19.9462 12.2717 29.639 8.16229 37.1024 8.22861C43.5473 7.88034 51.965 10.0675 53.5793 19.5157L61.8024 19.5079Z" fill="#00bdd6"/>
</g>
<defs>
<clipPath id="clip0_1_19">
<rect width="100%" height="100%" fill="white"/>
</clipPath>
</defs>
</svg>
